<?xml version="1.0" encoding="UTF-8" standalone="no"?>
<!DOCTYPE svg PUBLIC "-//W3C//DTD SVG 1.1//EN"
 "http://www.w3.org/Graphics/SVG/1.1/DTD/svg11.dtd">
<!-- Generated by graphviz version 2.44.1 (20200629.0846)
 -->
<!-- Title: controllers_diagram Pages: 1 -->
<svg width="359pt" height="313pt"
 viewBox="0.00 0.00 359.00 313.00" xmlns="http://www.w3.org/2000/svg" xmlns:xlink="http://www.w3.org/1999/xlink">
<g id="graph0" class="graph" transform="scale(1 1) rotate(0) translate(4 309)">
<title>controllers_diagram</title>
<polygon fill="transparent" stroke="transparent" points="-4,4 -4,-309 355,-309 355,4 -4,4"/>
<!-- _diagram_info -->
<g id="node1" class="node">
<title>_diagram_info</title>
<text text-anchor="start" x="8" y="-147.6" font-family="Times,serif" font-size="13.00">Controllers diagram</text>
<text text-anchor="start" x="8" y="-133.6" font-family="Times,serif" font-size="13.00">Date: Nov 10 2020 &#45; 16:24</text>
<text text-anchor="start" x="8" y="-119.6" font-family="Times,serif" font-size="13.00">Migration version: 20201110134109</text>
<text text-anchor="start" x="8" y="-105.6" font-family="Times,serif" font-size="13.00">Generated by RailRoady 1.5.3</text>
<text text-anchor="start" x="8" y="-91.6" font-family="Times,serif" font-size="13.00">http://railroady.prestonlee.com</text>
</g>
<!-- ApplicationController -->
<g id="node2" class="node">
<title>ApplicationController</title>
<path fill="none" stroke="black" d="M194,-196.5C194,-196.5 306,-196.5 306,-196.5 312,-196.5 318,-202.5 318,-208.5 318,-208.5 318,-278.5 318,-278.5 318,-284.5 312,-290.5 306,-290.5 306,-290.5 194,-290.5 194,-290.5 188,-290.5 182,-284.5 182,-278.5 182,-278.5 182,-208.5 182,-208.5 182,-202.5 188,-196.5 194,-196.5"/>
<text text-anchor="middle" x="250" y="-275.3" font-family="Times,serif" font-size="14.00">ApplicationController</text>
<polyline fill="none" stroke="black" points="182,-267.5 318,-267.5 "/>
<polyline fill="none" stroke="black" points="182,-243.5 318,-243.5 "/>
<polyline fill="none" stroke="black" points="182,-219.5 318,-219.5 "/>
<text text-anchor="start" x="190" y="-204.3" font-family="Times,serif" font-size="14.00">_layout</text>
</g>
<!-- ActorsController -->
<g id="node3" class="node">
<title>ActorsController</title>
<path fill="none" stroke="black" d="M54,-196.5C54,-196.5 138,-196.5 138,-196.5 144,-196.5 150,-202.5 150,-208.5 150,-208.5 150,-292.5 150,-292.5 150,-298.5 144,-304.5 138,-304.5 138,-304.5 54,-304.5 54,-304.5 48,-304.5 42,-298.5 42,-292.5 42,-292.5 42,-208.5 42,-208.5 42,-202.5 48,-196.5 54,-196.5"/>
<text text-anchor="middle" x="96" y="-289.3" font-family="Times,serif" font-size="14.00">ActorsController</text>
<polyline fill="none" stroke="black" points="42,-281.5 150,-281.5 "/>
<text text-anchor="start" x="50" y="-266.3" font-family="Times,serif" font-size="14.00">index</text>
<text text-anchor="start" x="50" y="-251.3" font-family="Times,serif" font-size="14.00">search_actor</text>
<polyline fill="none" stroke="black" points="42,-243.5 150,-243.5 "/>
<polyline fill="none" stroke="black" points="42,-219.5 150,-219.5 "/>
<text text-anchor="start" x="50" y="-204.3" font-family="Times,serif" font-size="14.00">_layout</text>
</g>
<!-- MoviesController -->
<g id="node4" class="node">
<title>MoviesController</title>
<path fill="none" stroke="black" d="M250,-0.5C250,-0.5 339,-0.5 339,-0.5 345,-0.5 351,-6.5 351,-12.5 351,-12.5 351,-81.5 351,-81.5 351,-87.5 345,-93.5 339,-93.5 339,-93.5 250,-93.5 250,-93.5 244,-93.5 238,-87.5 238,-81.5 238,-81.5 238,-12.5 238,-12.5 238,-6.5 244,-0.5 250,-0.5"/>
<text text-anchor="middle" x="294.5" y="-78.3" font-family="Times,serif" font-size="14.00">MoviesController</text>
<polyline fill="none" stroke="black" points="238,-70.5 351,-70.5 "/>
<text text-anchor="start" x="246" y="-55.3" font-family="Times,serif" font-size="14.00">index</text>
<polyline fill="none" stroke="black" points="238,-47.5 351,-47.5 "/>
<polyline fill="none" stroke="black" points="238,-23.5 351,-23.5 "/>
<text text-anchor="start" x="246" y="-8.3" font-family="Times,serif" font-size="14.00">_layout</text>
</g>
</g>
</svg>
