<?xml version="1.0" encoding="UTF-8" standalone="no"?>
<!DOCTYPE svg PUBLIC "-//W3C//DTD SVG 1.1//EN"
 "http://www.w3.org/Graphics/SVG/1.1/DTD/svg11.dtd">
<!-- Generated by graphviz version 2.44.1 (20200629.0846)
 -->
<!-- Title: models_diagram Pages: 1 -->
<svg width="556pt" height="446pt"
 viewBox="0.00 0.00 556.34 446.00" xmlns="http://www.w3.org/2000/svg" xmlns:xlink="http://www.w3.org/1999/xlink">
<g id="graph0" class="graph" transform="scale(1 1) rotate(0) translate(4 442)">
<title>models_diagram</title>
<polygon fill="transparent" stroke="transparent" points="-4,4 -4,-442 552.34,-442 552.34,4 -4,4"/>
<!-- _diagram_info -->
<g id="node1" class="node">
<title>_diagram_info</title>
<text text-anchor="start" x="8" y="-416.6" font-family="Times,serif" font-size="13.00">Models diagram</text>
<text text-anchor="start" x="8" y="-402.6" font-family="Times,serif" font-size="13.00">Date: Nov 10 2020 &#45; 16:24</text>
<text text-anchor="start" x="8" y="-388.6" font-family="Times,serif" font-size="13.00">Migration version: 20201110134109</text>
<text text-anchor="start" x="8" y="-374.6" font-family="Times,serif" font-size="13.00">Generated by RailRoady 1.5.3</text>
<text text-anchor="start" x="8" y="-360.6" font-family="Times,serif" font-size="13.00">http://railroady.prestonlee.com</text>
</g>
<!-- Actor -->
<g id="node2" class="node">
<title>Actor</title>
<path fill="none" stroke="black" d="M242,-346.5C242,-346.5 364,-346.5 364,-346.5 370,-346.5 376,-352.5 376,-358.5 376,-358.5 376,-425.5 376,-425.5 376,-431.5 370,-437.5 364,-437.5 364,-437.5 242,-437.5 242,-437.5 236,-437.5 230,-431.5 230,-425.5 230,-425.5 230,-358.5 230,-358.5 230,-352.5 236,-346.5 242,-346.5"/>
<text text-anchor="middle" x="303" y="-422.3" font-family="Times,serif" font-size="14.00">Actor</text>
<polyline fill="none" stroke="black" points="230,-414.5 376,-414.5 "/>
<text text-anchor="start" x="238" y="-399.3" font-family="Times,serif" font-size="14.00">id :integer</text>
<text text-anchor="start" x="238" y="-384.3" font-family="Times,serif" font-size="14.00">name :varchar</text>
<text text-anchor="start" x="238" y="-369.3" font-family="Times,serif" font-size="14.00">created_at :datetime(6)</text>
<text text-anchor="start" x="238" y="-354.3" font-family="Times,serif" font-size="14.00">updated_at :datetime(6)</text>
</g>
<!-- Movie -->
<g id="node3" class="node">
<title>Movie</title>
<path fill="none" stroke="black" d="M242,-173.5C242,-173.5 364,-173.5 364,-173.5 370,-173.5 376,-179.5 376,-185.5 376,-185.5 376,-297.5 376,-297.5 376,-303.5 370,-309.5 364,-309.5 364,-309.5 242,-309.5 242,-309.5 236,-309.5 230,-303.5 230,-297.5 230,-297.5 230,-185.5 230,-185.5 230,-179.5 236,-173.5 242,-173.5"/>
<text text-anchor="middle" x="303" y="-294.3" font-family="Times,serif" font-size="14.00">Movie</text>
<polyline fill="none" stroke="black" points="230,-286.5 376,-286.5 "/>
<text text-anchor="start" x="238" y="-271.3" font-family="Times,serif" font-size="14.00">id :integer</text>
<text text-anchor="start" x="238" y="-256.3" font-family="Times,serif" font-size="14.00">movie_title :varchar</text>
<text text-anchor="start" x="238" y="-241.3" font-family="Times,serif" font-size="14.00">description :text</text>
<text text-anchor="start" x="238" y="-226.3" font-family="Times,serif" font-size="14.00">year :integer</text>
<text text-anchor="start" x="238" y="-211.3" font-family="Times,serif" font-size="14.00">director :varchar</text>
<text text-anchor="start" x="238" y="-196.3" font-family="Times,serif" font-size="14.00">created_at :datetime(6)</text>
<text text-anchor="start" x="238" y="-181.3" font-family="Times,serif" font-size="14.00">updated_at :datetime(6)</text>
</g>
<!-- Actor&#45;&gt;Movie -->
<g id="edge1" class="edge">
<title>Actor&#45;&gt;Movie</title>
<path fill="none" stroke="#a6bc70" d="M303,-336.4C303,-330.94 303,-325.32 303,-319.68"/>
<polygon fill="#a6bc70" stroke="#a6bc70" points="303,-336.45 298.5,-346.45 303,-341.45 303,-346.45 303,-346.45 303,-346.45 303,-341.45 307.5,-346.45 303,-336.45 303,-336.45"/>
<polygon fill="#a6bc70" stroke="#a6bc70" points="303,-319.54 307.5,-309.54 303,-314.54 303,-309.54 303,-309.54 303,-309.54 303,-314.54 298.5,-309.54 303,-319.54 303,-319.54"/>
</g>
<!-- Country -->
<g id="node4" class="node">
<title>Country</title>
<path fill="none" stroke="black" d="M78,-23C78,-23 200,-23 200,-23 206,-23 212,-29 212,-35 212,-35 212,-102 212,-102 212,-108 206,-114 200,-114 200,-114 78,-114 78,-114 72,-114 66,-108 66,-102 66,-102 66,-35 66,-35 66,-29 72,-23 78,-23"/>
<text text-anchor="middle" x="139" y="-98.8" font-family="Times,serif" font-size="14.00">Country</text>
<polyline fill="none" stroke="black" points="66,-91 212,-91 "/>
<text text-anchor="start" x="74" y="-75.8" font-family="Times,serif" font-size="14.00">id :integer</text>
<text text-anchor="start" x="74" y="-60.8" font-family="Times,serif" font-size="14.00">name :varchar</text>
<text text-anchor="start" x="74" y="-45.8" font-family="Times,serif" font-size="14.00">created_at :datetime(6)</text>
<text text-anchor="start" x="74" y="-30.8" font-family="Times,serif" font-size="14.00">updated_at :datetime(6)</text>
</g>
<!-- Movie&#45;&gt;Country -->
<g id="edge3" class="edge">
<title>Movie&#45;&gt;Country</title>
<path fill="none" stroke="#309a8e" d="M231.43,-165.88C217.12,-150.96 202.38,-135.59 188.99,-121.63"/>
<polygon fill="#309a8e" stroke="#309a8e" points="231.73,-166.19 235.41,-176.52 235.19,-169.8 238.65,-173.41 238.65,-173.41 238.65,-173.41 235.19,-169.8 241.9,-170.29 231.73,-166.19 231.73,-166.19"/>
<polygon fill="#309a8e" stroke="#309a8e" points="188.63,-121.25 184.95,-110.91 185.17,-117.64 181.71,-114.03 181.71,-114.03 181.71,-114.03 185.17,-117.64 178.46,-117.14 188.63,-121.25 188.63,-121.25"/>
</g>
<!-- Review -->
<g id="node5" class="node">
<title>Review</title>
<path fill="none" stroke="black" d="M242,-0.5C242,-0.5 364,-0.5 364,-0.5 370,-0.5 376,-6.5 376,-12.5 376,-12.5 376,-124.5 376,-124.5 376,-130.5 370,-136.5 364,-136.5 364,-136.5 242,-136.5 242,-136.5 236,-136.5 230,-130.5 230,-124.5 230,-124.5 230,-12.5 230,-12.5 230,-6.5 236,-0.5 242,-0.5"/>
<text text-anchor="middle" x="303" y="-121.3" font-family="Times,serif" font-size="14.00">Review</text>
<polyline fill="none" stroke="black" points="230,-113.5 376,-113.5 "/>
<text text-anchor="start" x="238" y="-98.3" font-family="Times,serif" font-size="14.00">id :integer</text>
<text text-anchor="start" x="238" y="-83.3" font-family="Times,serif" font-size="14.00">movie_id :integer</text>
<text text-anchor="start" x="238" y="-68.3" font-family="Times,serif" font-size="14.00">user :varchar</text>
<text text-anchor="start" x="238" y="-53.3" font-family="Times,serif" font-size="14.00">stars :integer</text>
<text text-anchor="start" x="238" y="-38.3" font-family="Times,serif" font-size="14.00">review_text :text</text>
<text text-anchor="start" x="238" y="-23.3" font-family="Times,serif" font-size="14.00">created_at :datetime(6)</text>
<text text-anchor="start" x="238" y="-8.3" font-family="Times,serif" font-size="14.00">updated_at :datetime(6)</text>
</g>
<!-- Movie&#45;&gt;Review -->
<g id="edge4" class="edge">
<title>Movie&#45;&gt;Review</title>
<path fill="none" stroke="#419a88" d="M303,-165.14C303,-159.07 303,-152.93 303,-146.84"/>
<ellipse fill="none" stroke="#419a88" cx="303" cy="-169.41" rx="4" ry="4"/>
<polygon fill="#419a88" stroke="#419a88" points="303,-146.68 307.5,-136.68 303,-141.68 303,-136.68 303,-136.68 303,-136.68 303,-141.68 298.5,-136.68 303,-146.68 303,-146.68"/>
</g>
<!-- FilmingLocation -->
<g id="node6" class="node">
<title>FilmingLocation</title>
<path fill="none" stroke="black" d="M406,-23C406,-23 528,-23 528,-23 534,-23 540,-29 540,-35 540,-35 540,-102 540,-102 540,-108 534,-114 528,-114 528,-114 406,-114 406,-114 400,-114 394,-108 394,-102 394,-102 394,-35 394,-35 394,-29 400,-23 406,-23"/>
<text text-anchor="middle" x="467" y="-98.8" font-family="Times,serif" font-size="14.00">FilmingLocation</text>
<polyline fill="none" stroke="black" points="394,-91 540,-91 "/>
<text text-anchor="start" x="402" y="-75.8" font-family="Times,serif" font-size="14.00">id :integer</text>
<text text-anchor="start" x="402" y="-60.8" font-family="Times,serif" font-size="14.00">location :varchar</text>
<text text-anchor="start" x="402" y="-45.8" font-family="Times,serif" font-size="14.00">created_at :datetime(6)</text>
<text text-anchor="start" x="402" y="-30.8" font-family="Times,serif" font-size="14.00">updated_at :datetime(6)</text>
</g>
<!-- Movie&#45;&gt;FilmingLocation -->
<g id="edge2" class="edge">
<title>Movie&#45;&gt;FilmingLocation</title>
<path fill="none" stroke="#fbe94f" d="M374.57,-165.88C388.88,-150.96 403.62,-135.59 417.01,-121.63"/>
<polygon fill="#fbe94f" stroke="#fbe94f" points="374.27,-166.19 364.1,-170.29 370.81,-169.8 367.35,-173.41 367.35,-173.41 367.35,-173.41 370.81,-169.8 370.59,-176.52 374.27,-166.19 374.27,-166.19"/>
<polygon fill="#fbe94f" stroke="#fbe94f" points="417.37,-121.25 427.54,-117.14 420.83,-117.64 424.29,-114.03 424.29,-114.03 424.29,-114.03 420.83,-117.64 421.05,-110.91 417.37,-121.25 417.37,-121.25"/>
</g>
<!-- ApplicationRecord -->
<g id="node7" class="node">
<title>ApplicationRecord</title>
<ellipse fill="none" stroke="black" cx="471" cy="-392" rx="77.19" ry="18"/>
<text text-anchor="middle" x="471" y="-388.3" font-family="Times,serif" font-size="14.00">ApplicationRecord</text>
</g>
</g>
</svg>
