<?xml version="1.0" encoding="UTF-8" standalone="no"?>
<!DOCTYPE svg PUBLIC "-//W3C//DTD SVG 1.1//EN"
 "http://www.w3.org/Graphics/SVG/1.1/DTD/svg11.dtd">
<!-- Generated by graphviz version 2.44.1 (20200629.0846)
 -->
<!-- Title: models_diagram Pages: 1 -->
<svg width="472pt" height="230pt"
 viewBox="0.00 0.00 472.34 230.00" xmlns="http://www.w3.org/2000/svg" xmlns:xlink="http://www.w3.org/1999/xlink">
<g id="graph0" class="graph" transform="scale(1 1) rotate(0) translate(4 226)">
<title>models_diagram</title>
<polygon fill="transparent" stroke="transparent" points="-4,4 -4,-226 468.34,-226 468.34,4 -4,4"/>
<!-- _diagram_info -->
<g id="node1" class="node">
<title>_diagram_info</title>
<text text-anchor="start" x="8" y="-207.6" font-family="Times,serif" font-size="13.00">Models diagram</text>
<text text-anchor="start" x="8" y="-193.6" font-family="Times,serif" font-size="13.00">Date: Nov 10 2020 &#45; 16:24</text>
<text text-anchor="start" x="8" y="-179.6" font-family="Times,serif" font-size="13.00">Migration version: 20201110134109</text>
<text text-anchor="start" x="8" y="-165.6" font-family="Times,serif" font-size="13.00">Generated by RailRoady 1.5.3</text>
<text text-anchor="start" x="8" y="-151.6" font-family="Times,serif" font-size="13.00">http://railroady.prestonlee.com</text>
</g>
<!-- Actor -->
<g id="node2" class="node">
<title>Actor</title>
<ellipse fill="none" stroke="black" cx="261" cy="-183" rx="30.59" ry="18"/>
<text text-anchor="middle" x="261" y="-179.3" font-family="Times,serif" font-size="14.00">Actor</text>
</g>
<!-- Movie -->
<g id="node3" class="node">
<title>Movie</title>
<ellipse fill="none" stroke="black" cx="261" cy="-90" rx="34.39" ry="18"/>
<text text-anchor="middle" x="261" y="-86.3" font-family="Times,serif" font-size="14.00">Movie</text>
</g>
<!-- Actor&#45;&gt;Movie -->
<g id="edge1" class="edge">
<title>Actor&#45;&gt;Movie</title>
<path fill="none" stroke="#2099fa" d="M261,-154.55C261,-143.08 261,-129.79 261,-118.34"/>
<polygon fill="#2099fa" stroke="#2099fa" points="261,-154.88 256.5,-164.88 261,-159.88 261,-164.88 261,-164.88 261,-164.88 261,-159.88 265.5,-164.88 261,-154.88 261,-154.88"/>
<polygon fill="#2099fa" stroke="#2099fa" points="261,-118.04 265.5,-108.04 261,-113.04 261,-108.04 261,-108.04 261,-108.04 261,-113.04 256.5,-108.04 261,-118.04 261,-118.04"/>
</g>
<!-- Country -->
<g id="node4" class="node">
<title>Country</title>
<ellipse fill="none" stroke="black" cx="166" cy="-18" rx="39.79" ry="18"/>
<text text-anchor="middle" x="166" y="-14.3" font-family="Times,serif" font-size="14.00">Country</text>
</g>
<!-- Movie&#45;&gt;Country -->
<g id="edge3" class="edge">
<title>Movie&#45;&gt;Country</title>
<path fill="none" stroke="#f2cdc7" d="M233.69,-68.88C221.28,-59.74 206.61,-48.93 194.11,-39.71"/>
<polygon fill="#f2cdc7" stroke="#f2cdc7" points="233.72,-68.9 239.11,-78.46 237.75,-71.87 241.78,-74.83 241.78,-74.83 241.78,-74.83 237.75,-71.87 244.44,-71.21 233.72,-68.9 233.72,-68.9"/>
<polygon fill="#f2cdc7" stroke="#f2cdc7" points="193.9,-39.56 188.52,-30 189.88,-36.59 185.85,-33.63 185.85,-33.63 185.85,-33.63 189.88,-36.59 183.18,-37.25 193.9,-39.56 193.9,-39.56"/>
</g>
<!-- Review -->
<g id="node5" class="node">
<title>Review</title>
<ellipse fill="none" stroke="black" cx="261" cy="-18" rx="37.89" ry="18"/>
<text text-anchor="middle" x="261" y="-14.3" font-family="Times,serif" font-size="14.00">Review</text>
</g>
<!-- Movie&#45;&gt;Review -->
<g id="edge4" class="edge">
<title>Movie&#45;&gt;Review</title>
<path fill="none" stroke="#bb21db" d="M261,-63.64C261,-58.06 261,-52.13 261,-46.48"/>
<ellipse fill="none" stroke="#bb21db" cx="261" cy="-67.7" rx="4" ry="4"/>
<polygon fill="#bb21db" stroke="#bb21db" points="261,-46.1 265.5,-36.1 261,-41.1 261,-36.1 261,-36.1 261,-36.1 261,-41.1 256.5,-36.1 261,-46.1 261,-46.1"/>
</g>
<!-- FilmingLocation -->
<g id="node6" class="node">
<title>FilmingLocation</title>
<ellipse fill="none" stroke="black" cx="387" cy="-18" rx="70.39" ry="18"/>
<text text-anchor="middle" x="387" y="-14.3" font-family="Times,serif" font-size="14.00">FilmingLocation</text>
</g>
<!-- Movie&#45;&gt;FilmingLocation -->
<g id="edge2" class="edge">
<title>Movie&#45;&gt;FilmingLocation</title>
<path fill="none" stroke="#4608a9" d="M292.74,-71.37C310.13,-61.71 331.77,-49.68 349.93,-39.59"/>
<polygon fill="#4608a9" stroke="#4608a9" points="292.56,-71.47 281.63,-72.39 288.19,-73.9 283.82,-76.32 283.82,-76.32 283.82,-76.32 288.19,-73.9 286,-80.26 292.56,-71.47 292.56,-71.47"/>
<polygon fill="#4608a9" stroke="#4608a9" points="350.33,-39.37 361.25,-38.45 354.7,-36.95 359.07,-34.52 359.07,-34.52 359.07,-34.52 354.7,-36.95 356.88,-30.58 350.33,-39.37 350.33,-39.37"/>
</g>
<!-- ApplicationRecord -->
<g id="node7" class="node">
<title>ApplicationRecord</title>
<ellipse fill="none" stroke="black" cx="387" cy="-183" rx="77.19" ry="18"/>
<text text-anchor="middle" x="387" y="-179.3" font-family="Times,serif" font-size="14.00">ApplicationRecord</text>
</g>
</g>
</svg>
